<?xml version="1.0" encoding="UTF-8"?><svg id="Layer_2" xmlns="http://www.w3.org/2000/svg" viewBox="0 0 128.791 116.0313"><g id="Components"><g id="b3b5d9c3-334f-445f-bf87-ce38a6917a41_1"><path d="M.2137,57.9362c0-3.093-.0257-6.1862.0071-9.2789.0342-3.2267,1.9371-5.278,5.1584-5.3353,5.1503-.0916,10.304-.0871,15.4548-.0199,3.3724.044,5.9066,1.5709,7.9204,4.3727,7.8526,10.9254,15.8957,21.714,23.7271,32.6543,2.7535,3.8466,6.2212,5.7875,10.9273,5.5562.8465-.0416,1.6974-.0246,2.5453-.0012,4.2815.1184,7.4874-1.6217,9.9946-5.1566,7.5741-10.6787,15.4072-21.1749,22.8896-31.9164,2.7986-4.0175,6.2781-5.7623,11.0311-5.6417,4.3608.1107,8.7273-.0147,13.0912-.0099,3.6166.004,5.5811,1.9552,5.6045,5.6277.0389,6.1251.0431,12.2506.0273,18.3758-.0086,3.3522-1.9337,5.2837-5.3604,5.2703-4.5506-.0178-9.0786.2049-13.6073.6673-4.3878.448-7.6912,2.4472-10.2869,6.0263-7.8285,10.7945-15.8112,21.477-23.6559,32.2598-2.188,3.0075-4.9566,4.4986-8.6607,4.3628-1.8766-.0688-3.7633-.1138-5.635.0011-2.5678.1577-4.6092-.794-6.3102-2.6215-3.8503-4.1367-7.0462-8.7936-10.4571-13.2762-5.5789-7.3317-11.1099-14.701-16.5753-22.1178-2.6489-3.5947-6.416-4.5436-10.502-4.8635-3.9273-.3074-7.8604-.4797-11.8054-.4135-3.6699.0617-5.5139-1.7951-5.5304-5.4254-.0138-3.0322-.0028-6.0646-.0028-9.0969h.0109Z" style="fill:#f97316;"/><path d="M.1109,14.5895c0-2.8504-.0155-5.7009.0037-8.5511C.1413,2.0818,1.9917.2208,5.8891.2067c5.273-.0191,10.5475.0388,15.8187-.0671,4.3173-.0867,7.5836,1.3823,10.2147,5.0237,7.2051,9.9718,14.8513,19.6272,21.9617,29.664,3.8364,5.4154,9.9447,6.1382,15.718,4.5276,2.1856-.6097,3.7196-2.167,5.0507-3.9678,7.6742-10.3822,15.4189-20.7126,23.0321-31.1392,1.8418-2.5224,4.1718-3.8303,7.1683-4.0012,6.2963-.3592,12.6032-.2434,18.9036-.1617,3.0642.0397,4.974,2.2399,4.9812,5.3598.0137,5.9433.0073,11.8868-.0296,17.83-.0244,3.9318-2.0323,5.9497-5.9497,5.9767-4.7274.0326-9.4563.0675-14.1826-.0123-4.7693-.0805-8.3867,1.6102-11.2794,5.6272-7.189,9.9829-14.6614,19.7646-21.6598,29.884-2.35,3.398-5.34,4.9323-9.3506,4.8147-1.3322-.0391-2.6694-.0566-3.9996.0108-3.846.1951-6.6907-1.3257-8.9318-4.5075-4.8509-6.8871-9.8749-13.6523-14.8469-20.4536-2.5755-3.5231-5.2878-6.9501-7.7602-10.5432-2.2841-3.3194-5.4223-4.7061-9.2908-4.732-4.9698-.0334-9.9402-.0349-14.91-.0038-4.4554.0278-6.4141-1.8641-6.4539-6.3771-.0246-2.7895-.0046-5.5793-.0046-8.369.0074,0,.0149,0,.0223,0Z" style="fill:#7c3aed;"/><path d="M15.1269,86.5566c3.2095,0,6.4193-.0223,9.6286.006,3.5566.0313,5.5205,1.9605,5.537,5.51.0288,6.1803.0188,12.361-.0183,18.5413-.0188,3.13-1.8829,5.2695-4.9924,5.3252-6.7796.1215-13.5646.1246-20.3441-.0012C1.7878,115.8796.0065,113.7895.0022,110.5852c-.0082-6.1198.0043-12.24.0671-18.3595.0385-3.753,2.0619-5.6748,5.7925-5.6592,1.5744.0066,3.1489.0009,4.7233.0009,1.5139,0,3.0279,0,4.5418,0v-.0109Z" style="fill:#7c3aed;"/><path d="M113.684,115.8868c-3.1512.0017-6.303.0385-9.4535-.0079-3.6487-.0537-5.6285-2.0377-5.6417-5.6447-.0213-5.821-.0254-11.6423.0145-17.4632.0291-4.2499,2.0112-6.1912,6.2841-6.2081,6.06-.024,12.1201-.0283,18.1801-.013,3.6566.0093,5.6738,1.9751,5.6928,5.5721.0324,6.1241.041,12.2486.017,18.3728-.0135,3.4321-2.0021,5.3762-5.4585,5.4149-1.6357.0183-3.2719-.0184-4.9078-.0235-1.5756-.0049-3.1512-.001-4.7269.0007Z" style="fill:#7c3aed;"/></g></g></svg>