<?xml version="1.0" encoding="UTF-8"?><svg id="Layer_2" xmlns="http://www.w3.org/2000/svg" viewBox="0 0 746.8936 126.4852"><g id="Components"><g id="e1a1be4f-47ea-4732-87b8-c5c16d8ae81c_1"><path d="M.2137,57.9362c0-3.093-.0257-6.1862.0071-9.2789.0342-3.2267,1.9371-5.278,5.1584-5.3353,5.1503-.0916,10.304-.0871,15.4548-.0199,3.3724.044,5.9066,1.5709,7.9204,4.3727,7.8526,10.9254,15.8957,21.714,23.7271,32.6543,2.7535,3.8466,6.2212,5.7875,10.9273,5.5562.8465-.0416,1.6974-.0246,2.5453-.0012,4.2815.1184,7.4874-1.6217,9.9946-5.1566,7.5741-10.6787,15.4072-21.1749,22.8896-31.9164,2.7986-4.0175,6.2781-5.7623,11.0311-5.6417,4.3608.1107,8.7273-.0147,13.0912-.0099,3.6166.004,5.5811,1.9552,5.6045,5.6277.0389,6.1251.0431,12.2506.0273,18.3758-.0086,3.3522-1.9337,5.2837-5.3604,5.2703-4.5506-.0178-9.0786.2049-13.6073.6673-4.3878.448-7.6912,2.4472-10.2869,6.0263-7.8285,10.7945-15.8112,21.477-23.6559,32.2598-2.188,3.0075-4.9566,4.4986-8.6607,4.3628-1.8766-.0688-3.7633-.1138-5.635.0011-2.5678.1577-4.6092-.794-6.3102-2.6215-3.8503-4.1367-7.0462-8.7936-10.4571-13.2762-5.5789-7.3317-11.1099-14.701-16.5753-22.1178-2.6489-3.5947-6.416-4.5436-10.502-4.8635-3.9273-.3074-7.8604-.4797-11.8054-.4135-3.6699.0617-5.5139-1.7951-5.5304-5.4254-.0138-3.0322-.0028-6.0646-.0028-9.0969h.0109Z" style="fill:#f97316;"/><path d="M.1109,14.5895c0-2.8504-.0155-5.7009.0037-8.5511C.1413,2.0818,1.9917.2208,5.8891.2067c5.273-.0191,10.5475.0388,15.8187-.0671,4.3173-.0867,7.5836,1.3823,10.2147,5.0237,7.2051,9.9718,14.8513,19.6272,21.9617,29.664,3.8364,5.4154,9.9447,6.1382,15.718,4.5276,2.1856-.6097,3.7196-2.167,5.0507-3.9678,7.6742-10.3822,15.4189-20.7126,23.0321-31.1392,1.8418-2.5224,4.1718-3.8303,7.1683-4.0012,6.2963-.3592,12.6032-.2434,18.9036-.1617,3.0642.0397,4.974,2.2399,4.9812,5.3598.0137,5.9433.0073,11.8868-.0296,17.83-.0244,3.9318-2.0323,5.9497-5.9497,5.9767-4.7274.0326-9.4563.0675-14.1826-.0123-4.7693-.0805-8.3867,1.6102-11.2794,5.6272-7.189,9.9829-14.6614,19.7646-21.6598,29.884-2.35,3.398-5.34,4.9323-9.3506,4.8147-1.3322-.0391-2.6694-.0566-3.9996.0108-3.846.1951-6.6907-1.3257-8.9318-4.5075-4.8509-6.8871-9.8749-13.6523-14.8469-20.4536-2.5755-3.5231-5.2878-6.9501-7.7602-10.5432-2.2841-3.3194-5.4223-4.7061-9.2908-4.732-4.9698-.0334-9.9402-.0349-14.91-.0038-4.4554.0278-6.4141-1.8641-6.4539-6.3771-.0246-2.7895-.0046-5.5793-.0046-8.369.0074,0,.0149,0,.0223,0Z" style="fill:#7c3aed;"/><path d="M15.1269,86.5566c3.2095,0,6.4193-.0223,9.6286.006,3.5566.0313,5.5205,1.9605,5.537,5.51.0288,6.1803.0188,12.361-.0183,18.5413-.0188,3.13-1.8829,5.2695-4.9924,5.3252-6.7796.1215-13.5646.1246-20.3441-.0012C1.7878,115.8796.0065,113.7895.0022,110.5852c-.0082-6.1198.0043-12.24.0671-18.3595.0385-3.753,2.0619-5.6748,5.7925-5.6592,1.5744.0066,3.1489.0009,4.7233.0009,1.5139,0,3.0279,0,4.5418,0v-.0109Z" style="fill:#7c3aed;"/><path d="M113.684,115.8868c-3.1512.0017-6.303.0385-9.4535-.0079-3.6487-.0537-5.6285-2.0377-5.6417-5.6447-.0213-5.821-.0254-11.6423.0145-17.4632.0291-4.2499,2.0112-6.1912,6.2841-6.2081,6.06-.024,12.1201-.0283,18.1801-.013,3.6566.0093,5.6738,1.9751,5.6928,5.5721.0324,6.1241.041,12.2486.017,18.3728-.0135,3.4321-2.0021,5.3762-5.4585,5.4149-1.6357.0183-3.2719-.0184-4.9078-.0235-1.5756-.0049-3.1512-.001-4.7269.0007Z" style="fill:#7c3aed;"/><path d="M320.351,43.747c-4.8893-2.5545-10.6278-3.8526-17.0458-3.8526-6.4273,0-12.1439,1.2981-16.9913,3.863-4.8894,2.5757-8.7013,6.2297-11.3188,10.8468-2.6175,4.5962-3.9461,9.9986-3.9461,16.0606s1.3286,11.4644,3.9461,16.0606c2.6175,4.6171,6.4294,8.2711,11.3188,10.8468,4.8474,2.5662,10.564,3.863,16.9913,3.863,6.418,0,12.1565-1.2968,17.0458-3.8526,4.9208-2.5861,8.7528-6.2297,11.3807-10.8572,2.6174-4.5962,3.9366-9.9986,3.9366-16.0606s-1.3193-11.4644-3.9366-16.0606c-2.6279-4.6171-6.4599-8.2711-11.3807-10.8572ZM311.8287,79.9618c-2.1672,2.3663-4.9627,3.5179-8.5235,3.5179-3.4958,0-6.2399-1.1516-8.4062-3.5179-2.2091-2.4077-3.277-5.4548-3.277-9.297s1.0679-6.8786,3.277-9.297c2.1663-2.366,4.9199-3.5179,8.4062-3.5179,3.5609,0,6.3459,1.1519,8.5235,3.5179,2.1985,2.4184,3.2666,5.4548,3.2666,9.297s-1.0681,6.8893-3.2666,9.297Z" style="fill:#f97316;"/><path d="M438.3517,41.9228c-4.3029-2.5858-9.2646-3.905-14.7309-3.905-7.0879,0-14.3271,2.1046-19.028,6.2609l-.1238-5.1195h-17.5447v87.326h19.3949v-32.1307c4.4611,3.3199,11.1256,4.995,17.3016,4.995,5.4758,0,10.4281-1.3189,14.7309-3.9063,4.3042-2.5848,7.6964-6.2597,10.0825-10.9187,2.3662-4.6174,3.5702-9.9462,3.5702-15.8409s-1.204-11.2235-3.5702-15.8405c-2.3861-4.6487-5.7783-8.3235-10.0825-10.9203ZM428.0705,78.0122c-2.25,2.3455-5.0778,3.4863-8.6585,3.4863-3.5702,0-7.6789-1.1525-9.8786-3.528-2.2394-2.4083-3.3283-5.4447-3.3283-9.2869s1.0889-6.8786,3.3283-9.2866c2.2103-2.3764,6.3085-3.5283,9.8786-3.5283,3.5807,0,6.4086,1.1402,8.6585,3.4866,2.2615,2.3651,3.3607,5.4223,3.3607,9.3283s-1.0992,6.9626-3.3607,9.3286Z" style="fill:#f97316;"/><path d="M510.4288,47.0922c-4.3211-4.9249-10.2113-7.4229-17.5067-7.4229-6.2451,0-11.5354,1.8279-15.779,5.4403V10.7432h-17.9814v89.2237h17.9814v-31.0012c0-3.4579.9403-6.1624,2.8741-8.267,1.9023-2.0676,4.3367-3.073,7.4428-3.073,2.785,0,4.876.8462,6.392,2.5886,1.5463,1.7765,2.3305,4.3395,2.3305,7.6133v32.1392h20.6851v-33.1652c0-8.2041-2.1661-14.8348-6.4389-19.7083v-.0013Z" style="fill:#f97316;"/><polygon points="599.2865 17.0174 589.3476 17.0174 589.3476 99.263 630.3809 99.263 630.3809 89.4372 599.2865 89.4372 599.2865 17.0174" style="fill:#f97316;"/><path d="M743.4414,52.4756c-2.3076-4.7838-5.583-8.5632-9.7331-11.255-4.1316-2.6688-8.877-4.0298-14.0972-4.0298-5.1365,0-9.8076,1.2981-13.8656,3.8422-1.9438,1.2252-3.6848,2.6909-5.182,4.3556V11.1928h-8.6352v88.0731h8.4294v-7.4334c1.4898,1.6644,3.2299,3.1409,5.1746,4.3762,4.1223,2.6281,8.8576,3.9682,14.0787,3.9682s9.9656-1.3613,14.0972-4.031c4.1501-2.6906,7.4255-6.4703,9.7331-11.2655,2.2891-4.7428,3.4522-10.1975,3.4522-16.1967s-1.1631-11.4549-3.4522-16.2081ZM735.8486,80.3678c-1.582,3.2877-3.8161,5.8729-6.6449,7.685-2.8558,1.8216-6.1496,2.7538-9.788,2.7538-3.7127,0-7.0161-.9217-9.8355-2.7538-2.801-1.8008-5.0154-4.3878-6.6065-7.685-1.6006-3.3291-2.4101-7.266-2.4101-11.6842s.8095-8.3557,2.4192-11.6946c1.582-3.2877,3.7964-5.8738,6.5974-7.685,2.8194-1.8216,6.1228-2.7427,9.8355-2.7427,3.6384,0,6.9322.9315,9.788,2.7534,2.8288,1.8112,5.0629,4.3866,6.6449,7.6743,1.6004,3.3389,2.4099,7.2764,2.4099,11.6946s-.8095,8.3551-2.4099,11.6842Z" style="fill:#f97316;"/><polygon points="214.7418 72.3958 194.9226 14.7252 166.4396 14.7252 166.4396 100.9824 184.6089 101.1071 184.6089 38.3711 206.944 100.99 223.2077 100.99 243.4845 38.925 243.4845 101.306 261.2937 101.306 261.2937 14.945 232.8084 14.945 214.7418 72.3958" style="fill:#f97316;"/><path d="M361.0864,47.0227v-7.8609h-17.8785v59.0431h17.8785v-32.9789c3.8874-6.1072,10.8379-9.7931,18.2329-9.7931h3.0113v-15.4105h-10.237c-5.2533.5466-8.8401,4.0064-11.0072,7.0001Z" style="fill:#f97316;"/><path d="M551.1831,77.5579l-14.3096-37.6452h-21.0239l23.7024,55.6538c1.2458,2.9252,1.371,6.2824.0224,9.1615-4.3345,9.2531-18.3313,6.0721-18.3313,6.0721v15.0799c30.6004,3.0822,36.6543-17.9419,36.6543-17.9419l25.5371-68.1352h-20.2535l-11.998,37.7551Z" style="fill:#f97316;"/><path d="M667.0795,39.7295c-15.6719-4.4573-27.6829,4.7156-28.5026,5.3616l-.0613.0499c-.0606.0625-.2027.2084.0417,8.2054l.0088.2804.2381-.1484c8.2597-5.1381,15.7395-6.9708,22.2278-5.4418,5.2865,1.2435,8.979,5.9471,8.979,11.4375v3.0432c-4.4236,1.6191-22.8731,1.314-31.8383,8.9482-3.5846,3.0525-4.9682,7.4652-4.8059,12.3406.0013.3252.0846,8.0172,5.1949,13.0757,2.8602,2.8318,6.7561,4.2331,11.4243,4.2167.0208.0013.3044.0177.8001.0177,2.8095,0,12.4039-.5396,19.2249-7.2843v6.3977h10.3949l-.0019-43.5266c-2.0556-13.9794-13.2166-16.9463-13.3245-16.9735ZM670.011,82.3758c-2.238,3.0808-6.4566,7.6088-12.6357,9.0215-2.9841.6822-6.1492.4442-8.8693-.9599-2.5796-1.3315-5.2088-3.894-4.7159-8.7696,1.5716-7.2294,10.3801-5.4422,26.2208-10.6762v11.3842Z" style="fill:#f97316;"/></g></g></svg>